<svg width="18" height="32" viewBox="0 0 18 32" fill="none" xmlns="http://www.w3.org/2000/svg">
<path d="M10.2938 12.6678C13.2562 12.6678 16.0376 10.8273 17.0813 7.88729C17.2151 7.50999 17.0171 7.09587 16.6388 6.96235C14.8371 6.32601 12.8956 6.42445 11.1681 7.23788C11.6059 6.66526 12.0861 6.11465 12.6105 5.59174C12.8942 5.30876 12.8942 4.84985 12.6105 4.56696C12.3267 4.28398 11.8666 4.28398 11.5829 4.56696C11.2085 4.9404 10.8556 5.32726 10.5216 5.72472C10.4421 3.57215 9.39963 1.47753 7.50813 0.134963C7.18109 -0.0970816 6.72749 -0.0208151 6.49493 0.305205C5.38092 1.86666 4.94313 3.76729 5.26235 5.65705C5.55784 7.40593 6.46971 8.95065 7.84449 10.0521C7.60569 10.6039 7.39704 11.1655 7.21704 11.7345C7.07457 11.4166 6.90819 11.1067 6.71791 10.8073C5.68888 9.18883 4.08963 8.06691 2.21474 7.64814C2.02692 7.60615 1.82961 7.64043 1.66692 7.74335C1.50415 7.84626 1.38919 8.00949 1.347 8.197C0.510456 11.923 2.75844 15.633 6.39605 16.664C6.37777 17.4322 6.41029 18.201 6.49142 18.9658C6.32293 18.8164 6.14715 18.6736 5.96319 18.5386C4.415 17.4037 2.51682 16.938 0.61698 17.2271C0.220241 17.2875 -0.0521317 17.6572 0.00842499 18.0528C0.298376 19.9473 1.3107 21.6157 2.85889 22.7507C4.10721 23.6659 5.58324 24.1459 7.10392 24.1459C7.34729 24.1459 7.59189 24.1324 7.83676 24.1077C8.13383 24.7963 8.47651 25.4699 8.86516 26.1237C6.61736 25.4049 4.06001 25.7979 2.10172 27.3974C1.79137 27.651 1.74567 28.1075 1.99994 28.4172C3.21722 29.8999 4.94058 30.8211 6.85256 31.0109C7.09558 31.0351 7.33763 31.047 7.57853 31.047C9.06239 31.047 10.494 30.592 11.7097 29.7345C12.5276 30.5341 13.4205 31.2561 14.3676 31.8799C14.4909 31.9611 14.6299 32 14.7674 32C15.0033 32 15.2346 31.8855 15.3743 31.6745C15.5954 31.3405 15.5032 30.891 15.1684 30.6705C14.2537 30.0681 13.3931 29.3668 12.6105 28.5863C10.8601 26.8404 9.5929 24.7928 8.80663 22.6101C12.2567 21.2838 14.176 17.5076 13.12 13.9054C13.0075 13.5213 12.6041 13.301 12.2188 13.4131C10.3746 13.951 8.85084 15.173 7.92808 16.8539C7.89872 16.9074 7.87218 16.9618 7.84432 17.0158C7.85117 15.474 8.07547 13.9332 8.51809 12.4434C9.10889 12.5946 9.70478 12.6678 10.2938 12.6678ZM6.3638 15.1305C3.95753 14.2389 2.42849 11.8339 2.64611 9.2828C3.81761 9.71507 4.81033 10.5131 5.4906 11.5832C6.17088 12.6533 6.47146 13.8893 6.3638 15.1305ZM3.71952 21.5829C2.69595 20.8324 1.96584 19.7898 1.61401 18.5945C1.64486 18.594 1.67562 18.5937 1.70647 18.5937C4.23553 18.5937 6.49001 20.2694 7.20772 22.6955C5.95871 22.7161 4.74309 22.3334 3.71952 21.5829ZM6.99661 29.5687C5.73248 29.4432 4.57171 28.917 3.65826 28.0673C5.84551 26.7274 8.68666 27.0095 10.5663 28.7533C9.50281 29.4066 8.26057 29.6941 6.99661 29.5687ZM9.20258 17.5499C9.81271 16.4385 10.7521 15.5786 11.8933 15.0722C12.2745 17.604 10.9033 20.102 8.55939 21.1457C8.37227 19.914 8.59262 18.6613 9.20258 17.5499ZM11.7664 8.558C12.9131 8.01239 14.1795 7.86301 15.4019 8.11811C14.2264 10.3941 11.6497 11.6205 9.13613 11.0994C9.70672 9.99112 10.6199 9.10371 11.7664 8.558ZM6.69515 5.41615C6.48403 4.1666 6.68767 2.91117 7.26942 1.80872C9.1407 3.56111 9.61514 6.3694 8.42281 8.63672C7.51103 7.78525 6.90617 6.66561 6.69515 5.41615Z" fill="white"/>
</svg>
