<svg width="18" height="32" viewBox="0 0 18 32" fill="none" xmlns="http://www.w3.org/2000/svg">
<path d="M10.8961 24.1455C12.4167 24.1455 13.893 23.6654 15.1411 22.7502C16.6892 21.6152 17.7017 19.9469 17.9916 18.0523C18.0522 17.6567 17.7796 17.2871 17.3831 17.2266C15.1803 16.8911 13.0545 17.5952 11.5082 18.9701C11.5896 18.2037 11.6223 17.4331 11.604 16.6633C13.3063 16.1821 14.7535 15.1085 15.7086 13.6061C16.7375 11.9877 17.0729 10.0664 16.6531 8.19639C16.5656 7.80576 16.177 7.5603 15.7855 7.64753C13.9106 8.06621 12.3112 9.18821 11.2824 10.8067C11.092 11.1061 10.9257 11.4161 10.7832 11.734C10.6033 11.165 10.3945 10.6034 10.1557 10.0515C13.0969 7.69206 13.7218 3.41111 11.5054 0.30459C11.3937 0.147935 11.2242 0.042038 11.0342 0.0102162C10.844 -0.0220439 10.6492 0.0228398 10.4922 0.134347C8.92665 1.24548 7.88875 2.8982 7.56944 4.78804C7.51697 5.09898 7.48691 5.4101 7.47496 5.72008C7.14203 5.32401 6.79029 4.93856 6.41711 4.56643C6.1334 4.28345 5.67338 4.28336 5.38958 4.56643C5.10587 4.8494 5.10587 5.30832 5.38958 5.59121C5.91393 6.11421 6.39408 6.66474 6.83186 7.23735C5.10455 6.42401 3.16296 6.32539 1.36129 6.96183C0.983005 7.09534 0.784987 7.50946 0.918845 7.88676C1.96255 10.8271 4.74358 12.6673 7.70629 12.6673C8.29498 12.6673 8.89106 12.5942 9.48195 12.443C9.92527 13.9349 10.1495 15.4783 10.1558 17.0224C9.28472 15.3324 7.74988 13.9868 5.7814 13.4127C5.39617 13.3003 4.99284 13.5208 4.88017 13.9049C4.34087 15.7444 4.55198 17.6831 5.47474 19.3641C6.30004 20.8675 7.60706 22.0022 9.19322 22.6102C8.40687 24.7928 7.13966 26.8402 5.38958 28.5859C4.60726 29.3664 3.74646 30.0675 2.83161 30.6701C2.49683 30.8907 2.40455 31.3402 2.62568 31.6742C2.76534 31.8852 2.99685 31.9996 3.23266 31.9996C3.37012 31.9996 3.50916 31.9608 3.63238 31.8796C4.58002 31.2555 5.4729 30.5335 6.29072 29.7338C7.53833 30.6123 8.98694 31.0428 10.4284 31.0428C12.5123 31.0428 14.58 30.1467 16.0004 28.4169C16.1224 28.2682 16.1803 28.0772 16.1612 27.8859C16.1421 27.6947 16.0476 27.5189 15.8986 27.397C14.412 26.1829 12.5403 25.619 10.6285 25.8086C10.1161 25.8596 9.618 25.9646 9.13882 26.1171C9.52589 25.4654 9.86743 24.7939 10.1635 24.1074C10.4081 24.1321 10.6526 24.1455 10.8961 24.1455ZM15.3546 9.28289C15.4621 10.524 15.1617 11.76 14.4814 12.8301C13.8011 13.9002 12.8083 14.6982 11.6369 15.1305C11.4193 12.5795 12.9484 10.1743 15.3546 9.28289ZM16.3855 18.594C15.6588 21.0493 13.358 22.7335 10.7927 22.6945C11.5193 20.2391 13.8186 18.5518 16.3855 18.594ZM2.59817 8.11767C3.82064 7.86248 5.0868 8.01203 6.23342 8.55756C7.38004 9.10309 8.29331 9.99068 8.86381 11.0989C6.34961 11.6195 3.77362 10.3937 2.59817 8.11767ZM9.57678 8.6362C8.99494 7.53374 8.79139 6.27832 9.0025 5.02876C9.21361 3.7793 9.81839 2.65966 10.7302 1.80819C11.9225 4.07543 11.4481 6.88381 9.57678 8.6362ZM10.7722 27.2507C12.0368 27.1252 13.2784 27.4127 14.3419 28.0661C12.4623 29.8098 9.62099 30.092 7.43383 28.7522C8.34728 27.9024 9.50805 27.3763 10.7722 27.2507ZM9.44011 21.1456C8.29885 20.6392 7.35956 19.7793 6.74942 18.6679C6.13929 17.5565 5.91912 16.3038 6.10615 15.0721C8.45011 16.1157 9.82138 18.6138 9.44011 21.1456Z" fill="white"/>
</svg>
