<svg width="8" height="8" viewBox="0 0 8 8" fill="none" xmlns="http://www.w3.org/2000/svg">
<path d="M7.05043 0.166672C7.05033 0.166672 7.05014 0.166672 7.05004 0.166672H0.783338C0.350837 0.166574 9.79377e-05 0.517116 2.05084e-08 0.949614C2.05084e-08 0.949712 2.05084e-08 0.949907 2.05084e-08 0.950005V7.21667C-9.78967e-05 7.64917 0.350446 7.99991 0.782946 8.00001C0.783044 8.00001 0.78324 8.00001 0.783338 8.00001H7.05004C7.48254 8.0001 7.83328 7.64956 7.83338 7.21706C7.83338 7.21697 7.83338 7.21677 7.83338 7.21667V0.950005C7.83348 0.517507 7.48293 0.16677 7.05043 0.166672ZM6.2667 6.43334H1.56668V1.73334H6.2667V6.43334Z" fill="white"/>
</svg>
