<svg width="8" height="11" viewBox="0 0 8 11" fill="none" xmlns="http://www.w3.org/2000/svg">
<path d="M7.05043 -3.04971e-05C7.05033 -3.04971e-05 7.05014 -3.04971e-05 7.05004 -3.04971e-05H0.783338C0.350837 -0.000128414 9.79377e-05 0.350413 2.05084e-08 0.782911C2.05084e-08 0.783009 2.05084e-08 0.783205 2.05084e-08 0.783303V9.39997C-9.78967e-05 9.83247 0.350446 10.1832 0.782946 10.1833C0.783044 10.1833 0.78324 10.1833 0.783338 10.1833H7.05004C7.48254 10.1834 7.83328 9.83286 7.83338 9.40036C7.83338 9.40026 7.83338 9.40007 7.83338 9.39997V0.783303C7.83348 0.350805 7.48293 6.74196e-05 7.05043 -3.04971e-05ZM6.2667 8.61664H1.56668V1.56664H6.2667V8.61664Z" fill="white"/>
</svg>
