<svg width="9" height="21" viewBox="0 0 9 21" fill="none" xmlns="http://www.w3.org/2000/svg">
<path d="M7.30055 0.633392C7.30046 0.633392 7.30026 0.633392 7.30016 0.633392H1.03346C0.600959 0.633294 0.25022 0.983836 0.250122 1.41633C0.250122 1.41643 0.250122 1.41663 0.250122 1.41673V20.2167C0.250024 20.6492 0.600565 21 1.03307 21.0001C1.03316 21.0001 1.03336 21.0001 1.03346 21.0001H7.30016C7.73266 21.0002 8.0834 20.6496 8.0835 20.2171C8.0835 20.217 8.0835 20.2168 8.0835 20.2167V1.41673C8.0836 0.984228 7.73305 0.63349 7.30055 0.633392ZM6.51682 19.4334H1.8168V2.20006H6.51682V19.4334Z" fill="white"/>
</svg>
