<svg width="8" height="14" viewBox="0 0 8 14" fill="none" xmlns="http://www.w3.org/2000/svg">
<path d="M7.05043 -3.04971e-05C7.05033 -3.04971e-05 7.05014 -3.04971e-05 7.05004 -3.04971e-05H0.783338C0.350837 -0.000128414 9.79377e-05 0.350413 2.05085e-08 0.782911C2.05085e-08 0.783009 2.05085e-08 0.783205 2.05085e-08 0.783303V12.5333C-9.78967e-05 12.9658 0.350443 13.3165 0.782943 13.3166C0.783041 13.3166 0.78324 13.3166 0.783338 13.3166H7.05004C7.48254 13.3167 7.83328 12.9662 7.83338 12.5337C7.83338 12.5336 7.83338 12.5334 7.83338 12.5333V0.783303C7.83348 0.350805 7.48293 6.74196e-05 7.05043 -3.04971e-05ZM6.2667 11.75H1.56668V1.56664H6.2667V11.75Z" fill="white"/>
</svg>
