<svg width="8" height="8" viewBox="0 0 8 8" fill="none" xmlns="http://www.w3.org/2000/svg">
<path d="M7.05043 -3.04971e-05C7.05033 -3.04971e-05 7.05014 -3.04971e-05 7.05004 -3.04971e-05H0.783338C0.350837 -0.000128414 9.79377e-05 0.350413 2.05084e-08 0.782911C2.05084e-08 0.783009 2.05084e-08 0.783205 2.05084e-08 0.783303V7.04997C-9.78967e-05 7.48247 0.350446 7.83321 0.782946 7.8333C0.783044 7.8333 0.78324 7.8333 0.783338 7.8333H7.05004C7.48254 7.8334 7.83328 7.48286 7.83338 7.05036C7.83338 7.05026 7.83338 7.05007 7.83338 7.04997V0.783303C7.83348 0.350805 7.48293 6.74196e-05 7.05043 -3.04971e-05ZM6.2667 6.26664H1.56668V1.56664H6.2667V6.26664Z" fill="white"/>
</svg>
