<svg width="12" height="12" viewBox="0 0 12 12" fill="none" xmlns="http://www.w3.org/2000/svg">
<path d="M11.7614 4.60231C11.6023 4.4432 11.409 4.36368 11.1818 4.36368H7.63628V0.818102C7.63628 0.590904 7.5567 0.397678 7.39765 0.238571C7.23857 0.0795833 7.0455 0 6.81797 0H5.18176C4.95453 0 4.76134 0.0794937 4.60223 0.238601C4.44312 0.397707 4.3636 0.590934 4.3636 0.818132V4.36371H0.818134C0.590936 4.36371 0.397708 4.44323 0.238601 4.60234C0.0794939 4.76144 0 4.95449 0 5.18184V6.81825C0 7.04566 0.0794641 7.23874 0.238571 7.39769C0.397679 7.55686 0.590906 7.63632 0.818104 7.63632H4.36357V11.182C4.36357 11.4092 4.44309 11.6025 4.6022 11.7616C4.76131 11.9205 4.9545 12 5.18173 12H6.81806C7.04544 12 7.23854 11.9205 7.39768 11.7616C7.55685 11.6024 7.63631 11.4092 7.63631 11.182V7.63632H11.1817C11.4092 7.63632 11.6023 7.55686 11.7614 7.39769C11.9204 7.23874 12 7.04566 12 6.81825V5.18184C11.9999 4.95449 11.9206 4.76132 11.7614 4.60231Z" fill="#3C3D44"/>
</svg>
