<svg width="206" height="12" viewBox="0 0 206 12" fill="none" xmlns="http://www.w3.org/2000/svg">
<path d="M11.7614 4.60231C11.6023 4.4432 11.409 4.36368 11.1818 4.36368H7.63628V0.818102C7.63628 0.590904 7.5567 0.397678 7.39765 0.238571C7.23857 0.0795833 7.0455 0 6.81797 0H5.18176C4.95453 0 4.76134 0.0794937 4.60223 0.238601C4.44312 0.397707 4.3636 0.590934 4.3636 0.818132V4.36371H0.818134C0.590936 4.36371 0.397708 4.44323 0.238601 4.60234C0.0794939 4.76144 0 4.95449 0 5.18184V6.81825C0 7.04566 0.0794641 7.23874 0.238571 7.39769C0.397679 7.55686 0.590906 7.63632 0.818104 7.63632H4.36357V11.182C4.36357 11.4092 4.44309 11.6025 4.6022 11.7616C4.76131 11.9205 4.9545 12 5.18173 12H6.81806C7.04544 12 7.23854 11.9205 7.39768 11.7616C7.55685 11.6024 7.63631 11.4092 7.63631 11.182V7.63632H11.1817C11.4092 7.63632 11.6023 7.55686 11.7614 7.39769C11.9204 7.23874 12 7.04566 12 6.81825V5.18184C11.9999 4.95449 11.9206 4.76132 11.7614 4.60231Z" fill="#3C3D44"/>
<path d="M108.761 4.60231C108.602 4.4432 108.409 4.36368 108.182 4.36368H104.636V0.818102C104.636 0.590904 104.557 0.397678 104.398 0.238571C104.239 0.0795833 104.045 0 103.818 0H102.182C101.955 0 101.761 0.0794937 101.602 0.238601C101.443 0.397707 101.364 0.590934 101.364 0.818132V4.36371H97.8181C97.5909 4.36371 97.3977 4.44323 97.2386 4.60234C97.0795 4.76144 97 4.95449 97 5.18184V6.81825C97 7.04566 97.0795 7.23874 97.2386 7.39769C97.3977 7.55686 97.5909 7.63632 97.8181 7.63632H101.364V11.182C101.364 11.4092 101.443 11.6025 101.602 11.7616C101.761 11.9205 101.955 12 102.182 12H103.818C104.045 12 104.239 11.9205 104.398 11.7616C104.557 11.6024 104.636 11.4092 104.636 11.182V7.63632H108.182C108.409 7.63632 108.602 7.55686 108.761 7.39769C108.92 7.23874 109 7.04566 109 6.81825V5.18184C109 4.95449 108.921 4.76132 108.761 4.60231Z" fill="#3C3D44"/>
<path d="M205.761 4.60231C205.602 4.4432 205.409 4.36368 205.182 4.36368H201.636V0.818102C201.636 0.590904 201.557 0.397678 201.398 0.238571C201.239 0.0795833 201.045 0 200.818 0H199.182C198.955 0 198.761 0.0794937 198.602 0.238601C198.443 0.397707 198.364 0.590934 198.364 0.818132V4.36371H194.818C194.591 4.36371 194.398 4.44323 194.239 4.60234C194.079 4.76144 194 4.95449 194 5.18184V6.81825C194 7.04566 194.079 7.23874 194.239 7.39769C194.398 7.55686 194.591 7.63632 194.818 7.63632H198.364V11.182C198.364 11.4092 198.443 11.6025 198.602 11.7616C198.761 11.9205 198.955 12 199.182 12H200.818C201.045 12 201.239 11.9205 201.398 11.7616C201.557 11.6024 201.636 11.4092 201.636 11.182V7.63632H205.182C205.409 7.63632 205.602 7.55686 205.761 7.39769C205.92 7.23874 206 7.04566 206 6.81825V5.18184C206 4.95449 205.921 4.76132 205.761 4.60231Z" fill="#3C3D44"/>
</svg>
