<svg width="37" height="29" viewBox="0 0 37 29" fill="none" xmlns="http://www.w3.org/2000/svg">
<mask id="path-1-outside-1" maskUnits="userSpaceOnUse" x="0" y="-0.792328" width="37" height="29" fill="black">
<rect fill="white" y="-0.792328" width="37" height="29"/>
<path d="M32.3469 15.3584L30.0665 14.8137V13.9091C31.3323 13.1091 32.1753 11.6983 32.1753 10.0935V7.54591C32.1753 5.05811 30.1513 3.0342 27.6634 3.0342C26.3214 3.0342 25.1151 3.62386 24.2879 4.5569C23.5634 2.04791 21.2462 0.207672 18.5071 0.207672H18.507C15.7635 0.207672 13.4432 2.05372 12.7227 4.56886C11.8953 3.62892 10.6845 3.0342 9.33677 3.0342C6.8489 3.0342 4.82491 5.05818 4.82491 7.54591V10.0935C4.82491 11.6983 5.66792 13.1092 6.93366 13.9091V14.8137L4.65333 15.3584C2.50227 15.8722 1 17.7756 1 19.9869V24.5821C1 24.9596 1.30611 25.2657 1.68359 25.2657H7.14981V27.3165C7.14981 27.694 7.45593 28.0001 7.83341 28.0001H15.3327C15.7102 28.0001 16.0163 27.694 16.0163 27.3165C16.0163 26.9389 15.7102 26.6329 15.3327 26.6329H12.2809V23.6242C12.2809 23.2467 11.9748 22.9407 11.5973 22.9407C11.2199 22.9407 10.9137 23.2467 10.9137 23.6242V26.6329H8.51693V23.5486C8.51693 21.2303 10.0915 19.2339 12.3461 18.6936L15.7082 17.8879L17.8715 22.8095C17.9806 23.0578 18.2261 23.2181 18.4972 23.2181H18.4973C18.7684 23.2181 19.0139 23.0578 19.123 22.8096L21.2841 17.8952L24.6365 18.696C26.8931 19.235 28.4691 21.2319 28.4691 23.5519V24.3147C28.4341 24.3968 28.4147 24.4871 28.4147 24.582C28.4147 24.6769 28.4341 24.7673 28.4691 24.8494V26.6329H26.0863V23.6242C26.0863 23.2467 25.7801 22.9407 25.4027 22.9407C25.0252 22.9407 24.7191 23.2467 24.7191 23.6242V26.6329H21.3712C20.9937 26.6329 20.6876 26.9389 20.6876 27.3165C20.6876 27.694 20.9937 28.0001 21.3712 28.0001H29.1526C29.5301 28.0001 29.8362 27.694 29.8362 27.3165V25.2657H35.3164C35.6939 25.2657 36 24.9596 36 24.5821V19.9869C36 17.7756 34.4977 15.8722 32.3469 15.3584ZM27.6634 4.40138C29.3973 4.40138 30.808 5.81205 30.808 7.54591V7.71517V7.78387H28.8528C27.3758 7.78387 25.9244 7.39607 24.6454 6.661C25.0286 5.35657 26.2365 4.40138 27.6634 4.40138ZM24.5187 9.9819C24.5211 9.91211 24.5228 8.14385 24.5228 8.14385C25.8667 8.80475 27.3482 9.15113 28.8528 9.15113H30.8081V10.0935C30.808 11.8274 29.3973 13.238 27.6634 13.238C25.9294 13.238 24.5187 11.8273 24.5187 10.0935V9.9819ZM13.8584 6.22337C13.8584 3.66016 15.9438 1.57493 18.507 1.57493C21.0702 1.57493 23.1556 3.66023 23.1556 6.22337V6.31251L20.6185 4.82193C20.3306 4.65274 19.9627 4.71638 19.7482 4.97225C18.7625 6.14858 17.3168 6.82329 15.782 6.82329H13.8584V6.22337ZM6.19196 7.71524V7.54591C6.19196 5.81198 7.6027 4.40138 9.33663 4.40138C10.7635 4.40138 11.9714 5.35657 12.3546 6.66107C11.0755 7.39607 9.62422 7.78394 8.14718 7.78394H6.19196V7.71524ZM6.19196 10.0935V9.15106H8.14725C9.65334 9.15106 11.1364 8.80407 12.4813 8.14187V10.0935C12.4813 11.8274 11.0706 13.238 9.33663 13.238C7.6027 13.238 6.19196 11.8273 6.19196 10.0935ZM7.14981 23.5486V23.8985H5.10156V20.8614C5.10156 20.4838 4.79545 20.1778 4.41797 20.1778C4.04049 20.1778 3.73438 20.4838 3.73438 20.8614V23.8985H2.36719V19.9869C2.36719 18.4109 3.43783 17.0544 4.97079 16.6882L7.13765 16.1705L8.55187 19.5581C7.66736 20.6569 7.14981 22.0497 7.14981 23.5486ZM9.33677 17.8893L8.29859 15.4025C8.29976 15.3861 8.30071 15.3698 8.30071 15.3532V14.4838C8.63355 14.5623 8.98014 14.6052 9.33663 14.6052C9.69155 14.6052 10.0365 14.5627 10.368 14.4849V15.31C10.3673 15.3228 10.3669 15.3357 10.3669 15.3485C10.3669 15.3701 10.369 15.3915 10.371 15.4128L9.33677 17.8893ZM12.0275 17.3641C11.6239 17.4608 11.2381 17.5954 10.8718 17.7614L11.5377 16.1671L13.7049 16.6865C13.873 16.7267 14.0367 16.78 14.1953 16.8446L12.0275 17.3641ZM15.4206 15.9393C14.9915 15.6731 14.5206 15.476 14.0235 15.3569L11.7352 14.8086V13.9121C12.3043 13.5534 12.7877 13.0713 13.148 12.5034C13.6634 13.5103 14.4544 14.3534 15.4206 14.9334V15.9393ZM20.2044 16.9541L18.4974 20.8359L16.7878 16.9465V15.5366C17.3328 15.6995 17.9098 15.7873 18.507 15.7873C19.0962 15.7873 19.6659 15.7017 20.2044 15.5431V16.9541ZM18.507 14.4202C15.9437 14.4201 13.8584 12.3348 13.8584 9.7717V8.19054H15.7819C17.5267 8.19054 19.1804 7.50093 20.4021 6.28051L23.1516 7.89578V9.93214C23.0665 12.4212 21.0165 14.4202 18.507 14.4202ZM21.5716 14.9462H21.5717C22.5439 14.3682 23.3404 13.5245 23.8597 12.5154C24.2193 13.0781 24.6998 13.5559 25.2648 13.9121V14.8086L22.9765 15.3569C22.4764 15.4768 22.0029 15.6756 21.5716 15.9443V14.9462ZM24.9541 17.3664L22.7922 16.8498C22.9546 16.7828 23.1226 16.7278 23.2951 16.6865L25.4571 16.1684L26.1256 17.7698C25.7546 17.6008 25.3636 17.4642 24.9541 17.3664ZM26.6275 15.423C26.6303 15.3982 26.6322 15.3733 26.6322 15.3482C26.6322 15.3419 26.6322 15.3355 26.632 15.3291V14.4849C26.9635 14.5627 27.3084 14.6052 27.6634 14.6052C28.0199 14.6052 28.3664 14.5623 28.6993 14.4838V15.3532C28.6993 15.3656 28.7002 15.3778 28.7009 15.3902L27.6571 17.8893L26.6275 15.423ZM34.6328 23.8985H33.2656V20.8614C33.2656 20.4838 32.9595 20.1778 32.582 20.1778C32.2046 20.1778 31.8984 20.4838 31.8984 20.8614V23.8985H29.8362V23.5519C29.8362 22.0549 29.3204 20.6641 28.4384 19.5662L29.8571 16.1693L32.0292 16.6882C33.5622 17.0544 34.6328 18.4109 34.6328 19.9869V23.8985Z"/>
</mask>
<path d="M32.3469 15.3584L30.0665 14.8137V13.9091C31.3323 13.1091 32.1753 11.6983 32.1753 10.0935V7.54591C32.1753 5.05811 30.1513 3.0342 27.6634 3.0342C26.3214 3.0342 25.1151 3.62386 24.2879 4.5569C23.5634 2.04791 21.2462 0.207672 18.5071 0.207672H18.507C15.7635 0.207672 13.4432 2.05372 12.7227 4.56886C11.8953 3.62892 10.6845 3.0342 9.33677 3.0342C6.8489 3.0342 4.82491 5.05818 4.82491 7.54591V10.0935C4.82491 11.6983 5.66792 13.1092 6.93366 13.9091V14.8137L4.65333 15.3584C2.50227 15.8722 1 17.7756 1 19.9869V24.5821C1 24.9596 1.30611 25.2657 1.68359 25.2657H7.14981V27.3165C7.14981 27.694 7.45593 28.0001 7.83341 28.0001H15.3327C15.7102 28.0001 16.0163 27.694 16.0163 27.3165C16.0163 26.9389 15.7102 26.6329 15.3327 26.6329H12.2809V23.6242C12.2809 23.2467 11.9748 22.9407 11.5973 22.9407C11.2199 22.9407 10.9137 23.2467 10.9137 23.6242V26.6329H8.51693V23.5486C8.51693 21.2303 10.0915 19.2339 12.3461 18.6936L15.7082 17.8879L17.8715 22.8095C17.9806 23.0578 18.2261 23.2181 18.4972 23.2181H18.4973C18.7684 23.2181 19.0139 23.0578 19.123 22.8096L21.2841 17.8952L24.6365 18.696C26.8931 19.235 28.4691 21.2319 28.4691 23.5519V24.3147C28.4341 24.3968 28.4147 24.4871 28.4147 24.582C28.4147 24.6769 28.4341 24.7673 28.4691 24.8494V26.6329H26.0863V23.6242C26.0863 23.2467 25.7801 22.9407 25.4027 22.9407C25.0252 22.9407 24.7191 23.2467 24.7191 23.6242V26.6329H21.3712C20.9937 26.6329 20.6876 26.9389 20.6876 27.3165C20.6876 27.694 20.9937 28.0001 21.3712 28.0001H29.1526C29.5301 28.0001 29.8362 27.694 29.8362 27.3165V25.2657H35.3164C35.6939 25.2657 36 24.9596 36 24.5821V19.9869C36 17.7756 34.4977 15.8722 32.3469 15.3584ZM27.6634 4.40138C29.3973 4.40138 30.808 5.81205 30.808 7.54591V7.71517V7.78387H28.8528C27.3758 7.78387 25.9244 7.39607 24.6454 6.661C25.0286 5.35657 26.2365 4.40138 27.6634 4.40138ZM24.5187 9.9819C24.5211 9.91211 24.5228 8.14385 24.5228 8.14385C25.8667 8.80475 27.3482 9.15113 28.8528 9.15113H30.8081V10.0935C30.808 11.8274 29.3973 13.238 27.6634 13.238C25.9294 13.238 24.5187 11.8273 24.5187 10.0935V9.9819ZM13.8584 6.22337C13.8584 3.66016 15.9438 1.57493 18.507 1.57493C21.0702 1.57493 23.1556 3.66023 23.1556 6.22337V6.31251L20.6185 4.82193C20.3306 4.65274 19.9627 4.71638 19.7482 4.97225C18.7625 6.14858 17.3168 6.82329 15.782 6.82329H13.8584V6.22337ZM6.19196 7.71524V7.54591C6.19196 5.81198 7.6027 4.40138 9.33663 4.40138C10.7635 4.40138 11.9714 5.35657 12.3546 6.66107C11.0755 7.39607 9.62422 7.78394 8.14718 7.78394H6.19196V7.71524ZM6.19196 10.0935V9.15106H8.14725C9.65334 9.15106 11.1364 8.80407 12.4813 8.14187V10.0935C12.4813 11.8274 11.0706 13.238 9.33663 13.238C7.6027 13.238 6.19196 11.8273 6.19196 10.0935ZM7.14981 23.5486V23.8985H5.10156V20.8614C5.10156 20.4838 4.79545 20.1778 4.41797 20.1778C4.04049 20.1778 3.73438 20.4838 3.73438 20.8614V23.8985H2.36719V19.9869C2.36719 18.4109 3.43783 17.0544 4.97079 16.6882L7.13765 16.1705L8.55187 19.5581C7.66736 20.6569 7.14981 22.0497 7.14981 23.5486ZM9.33677 17.8893L8.29859 15.4025C8.29976 15.3861 8.30071 15.3698 8.30071 15.3532V14.4838C8.63355 14.5623 8.98014 14.6052 9.33663 14.6052C9.69155 14.6052 10.0365 14.5627 10.368 14.4849V15.31C10.3673 15.3228 10.3669 15.3357 10.3669 15.3485C10.3669 15.3701 10.369 15.3915 10.371 15.4128L9.33677 17.8893ZM12.0275 17.3641C11.6239 17.4608 11.2381 17.5954 10.8718 17.7614L11.5377 16.1671L13.7049 16.6865C13.873 16.7267 14.0367 16.78 14.1953 16.8446L12.0275 17.3641ZM15.4206 15.9393C14.9915 15.6731 14.5206 15.476 14.0235 15.3569L11.7352 14.8086V13.9121C12.3043 13.5534 12.7877 13.0713 13.148 12.5034C13.6634 13.5103 14.4544 14.3534 15.4206 14.9334V15.9393ZM20.2044 16.9541L18.4974 20.8359L16.7878 16.9465V15.5366C17.3328 15.6995 17.9098 15.7873 18.507 15.7873C19.0962 15.7873 19.6659 15.7017 20.2044 15.5431V16.9541ZM18.507 14.4202C15.9437 14.4201 13.8584 12.3348 13.8584 9.7717V8.19054H15.7819C17.5267 8.19054 19.1804 7.50093 20.4021 6.28051L23.1516 7.89578V9.93214C23.0665 12.4212 21.0165 14.4202 18.507 14.4202ZM21.5716 14.9462H21.5717C22.5439 14.3682 23.3404 13.5245 23.8597 12.5154C24.2193 13.0781 24.6998 13.5559 25.2648 13.9121V14.8086L22.9765 15.3569C22.4764 15.4768 22.0029 15.6756 21.5716 15.9443V14.9462ZM24.9541 17.3664L22.7922 16.8498C22.9546 16.7828 23.1226 16.7278 23.2951 16.6865L25.4571 16.1684L26.1256 17.7698C25.7546 17.6008 25.3636 17.4642 24.9541 17.3664ZM26.6275 15.423C26.6303 15.3982 26.6322 15.3733 26.6322 15.3482C26.6322 15.3419 26.6322 15.3355 26.632 15.3291V14.4849C26.9635 14.5627 27.3084 14.6052 27.6634 14.6052C28.0199 14.6052 28.3664 14.5623 28.6993 14.4838V15.3532C28.6993 15.3656 28.7002 15.3778 28.7009 15.3902L27.6571 17.8893L26.6275 15.423ZM34.6328 23.8985H33.2656V20.8614C33.2656 20.4838 32.9595 20.1778 32.582 20.1778C32.2046 20.1778 31.8984 20.4838 31.8984 20.8614V23.8985H29.8362V23.5519C29.8362 22.0549 29.3204 20.6641 28.4384 19.5662L29.8571 16.1693L32.0292 16.6882C33.5622 17.0544 34.6328 18.4109 34.6328 19.9869V23.8985Z" fill="white"/>
<path d="M32.3469 15.3584L30.0665 14.8137V13.9091C31.3323 13.1091 32.1753 11.6983 32.1753 10.0935V7.54591C32.1753 5.05811 30.1513 3.0342 27.6634 3.0342C26.3214 3.0342 25.1151 3.62386 24.2879 4.5569C23.5634 2.04791 21.2462 0.207672 18.5071 0.207672H18.507C15.7635 0.207672 13.4432 2.05372 12.7227 4.56886C11.8953 3.62892 10.6845 3.0342 9.33677 3.0342C6.8489 3.0342 4.82491 5.05818 4.82491 7.54591V10.0935C4.82491 11.6983 5.66792 13.1092 6.93366 13.9091V14.8137L4.65333 15.3584C2.50227 15.8722 1 17.7756 1 19.9869V24.5821C1 24.9596 1.30611 25.2657 1.68359 25.2657H7.14981V27.3165C7.14981 27.694 7.45593 28.0001 7.83341 28.0001H15.3327C15.7102 28.0001 16.0163 27.694 16.0163 27.3165C16.0163 26.9389 15.7102 26.6329 15.3327 26.6329H12.2809V23.6242C12.2809 23.2467 11.9748 22.9407 11.5973 22.9407C11.2199 22.9407 10.9137 23.2467 10.9137 23.6242V26.6329H8.51693V23.5486C8.51693 21.2303 10.0915 19.2339 12.3461 18.6936L15.7082 17.8879L17.8715 22.8095C17.9806 23.0578 18.2261 23.2181 18.4972 23.2181H18.4973C18.7684 23.2181 19.0139 23.0578 19.123 22.8096L21.2841 17.8952L24.6365 18.696C26.8931 19.235 28.4691 21.2319 28.4691 23.5519V24.3147C28.4341 24.3968 28.4147 24.4871 28.4147 24.582C28.4147 24.6769 28.4341 24.7673 28.4691 24.8494V26.6329H26.0863V23.6242C26.0863 23.2467 25.7801 22.9407 25.4027 22.9407C25.0252 22.9407 24.7191 23.2467 24.7191 23.6242V26.6329H21.3712C20.9937 26.6329 20.6876 26.9389 20.6876 27.3165C20.6876 27.694 20.9937 28.0001 21.3712 28.0001H29.1526C29.5301 28.0001 29.8362 27.694 29.8362 27.3165V25.2657H35.3164C35.6939 25.2657 36 24.9596 36 24.5821V19.9869C36 17.7756 34.4977 15.8722 32.3469 15.3584ZM27.6634 4.40138C29.3973 4.40138 30.808 5.81205 30.808 7.54591V7.71517V7.78387H28.8528C27.3758 7.78387 25.9244 7.39607 24.6454 6.661C25.0286 5.35657 26.2365 4.40138 27.6634 4.40138ZM24.5187 9.9819C24.5211 9.91211 24.5228 8.14385 24.5228 8.14385C25.8667 8.80475 27.3482 9.15113 28.8528 9.15113H30.8081V10.0935C30.808 11.8274 29.3973 13.238 27.6634 13.238C25.9294 13.238 24.5187 11.8273 24.5187 10.0935V9.9819ZM13.8584 6.22337C13.8584 3.66016 15.9438 1.57493 18.507 1.57493C21.0702 1.57493 23.1556 3.66023 23.1556 6.22337V6.31251L20.6185 4.82193C20.3306 4.65274 19.9627 4.71638 19.7482 4.97225C18.7625 6.14858 17.3168 6.82329 15.782 6.82329H13.8584V6.22337ZM6.19196 7.71524V7.54591C6.19196 5.81198 7.6027 4.40138 9.33663 4.40138C10.7635 4.40138 11.9714 5.35657 12.3546 6.66107C11.0755 7.39607 9.62422 7.78394 8.14718 7.78394H6.19196V7.71524ZM6.19196 10.0935V9.15106H8.14725C9.65334 9.15106 11.1364 8.80407 12.4813 8.14187V10.0935C12.4813 11.8274 11.0706 13.238 9.33663 13.238C7.6027 13.238 6.19196 11.8273 6.19196 10.0935ZM7.14981 23.5486V23.8985H5.10156V20.8614C5.10156 20.4838 4.79545 20.1778 4.41797 20.1778C4.04049 20.1778 3.73438 20.4838 3.73438 20.8614V23.8985H2.36719V19.9869C2.36719 18.4109 3.43783 17.0544 4.97079 16.6882L7.13765 16.1705L8.55187 19.5581C7.66736 20.6569 7.14981 22.0497 7.14981 23.5486ZM9.33677 17.8893L8.29859 15.4025C8.29976 15.3861 8.30071 15.3698 8.30071 15.3532V14.4838C8.63355 14.5623 8.98014 14.6052 9.33663 14.6052C9.69155 14.6052 10.0365 14.5627 10.368 14.4849V15.31C10.3673 15.3228 10.3669 15.3357 10.3669 15.3485C10.3669 15.3701 10.369 15.3915 10.371 15.4128L9.33677 17.8893ZM12.0275 17.3641C11.6239 17.4608 11.2381 17.5954 10.8718 17.7614L11.5377 16.1671L13.7049 16.6865C13.873 16.7267 14.0367 16.78 14.1953 16.8446L12.0275 17.3641ZM15.4206 15.9393C14.9915 15.6731 14.5206 15.476 14.0235 15.3569L11.7352 14.8086V13.9121C12.3043 13.5534 12.7877 13.0713 13.148 12.5034C13.6634 13.5103 14.4544 14.3534 15.4206 14.9334V15.9393ZM20.2044 16.9541L18.4974 20.8359L16.7878 16.9465V15.5366C17.3328 15.6995 17.9098 15.7873 18.507 15.7873C19.0962 15.7873 19.6659 15.7017 20.2044 15.5431V16.9541ZM18.507 14.4202C15.9437 14.4201 13.8584 12.3348 13.8584 9.7717V8.19054H15.7819C17.5267 8.19054 19.1804 7.50093 20.4021 6.28051L23.1516 7.89578V9.93214C23.0665 12.4212 21.0165 14.4202 18.507 14.4202ZM21.5716 14.9462H21.5717C22.5439 14.3682 23.3404 13.5245 23.8597 12.5154C24.2193 13.0781 24.6998 13.5559 25.2648 13.9121V14.8086L22.9765 15.3569C22.4764 15.4768 22.0029 15.6756 21.5716 15.9443V14.9462ZM24.9541 17.3664L22.7922 16.8498C22.9546 16.7828 23.1226 16.7278 23.2951 16.6865L25.4571 16.1684L26.1256 17.7698C25.7546 17.6008 25.3636 17.4642 24.9541 17.3664ZM26.6275 15.423C26.6303 15.3982 26.6322 15.3733 26.6322 15.3482C26.6322 15.3419 26.6322 15.3355 26.632 15.3291V14.4849C26.9635 14.5627 27.3084 14.6052 27.6634 14.6052C28.0199 14.6052 28.3664 14.5623 28.6993 14.4838V15.3532C28.6993 15.3656 28.7002 15.3778 28.7009 15.3902L27.6571 17.8893L26.6275 15.423ZM34.6328 23.8985H33.2656V20.8614C33.2656 20.4838 32.9595 20.1778 32.582 20.1778C32.2046 20.1778 31.8984 20.4838 31.8984 20.8614V23.8985H29.8362V23.5519C29.8362 22.0549 29.3204 20.6641 28.4384 19.5662L29.8571 16.1693L32.0292 16.6882C33.5622 17.0544 34.6328 18.4109 34.6328 19.9869V23.8985Z" stroke="#4A4D50" stroke-width="0.4" mask="url(#path-1-outside-1)"/>
</svg>
