<svg width="15" height="13" viewBox="0 0 15 13" fill="none" xmlns="http://www.w3.org/2000/svg">
<path d="M14.0394 4.86666C13.9544 4.60437 13.7269 4.41309 13.4533 4.37347L9.79 3.84249L8.15164 0.531363C8.0292 0.283978 7.77661 0.127411 7.5001 0.127411C7.22351 0.127411 6.971 0.284065 6.84857 0.531363L5.2102 3.84249L1.54683 4.37347C1.27314 4.41309 1.04568 4.60429 0.960245 4.86666C0.874816 5.12895 0.946095 5.41701 1.14403 5.60952L3.79489 8.18682L3.16911 11.8261C3.12244 12.0979 3.2345 12.3727 3.45819 12.5348C3.68187 12.6968 3.97841 12.7183 4.22327 12.59L7.49993 10.8717L10.7766 12.59C10.8829 12.6457 10.999 12.6732 11.1146 12.6732C11.2653 12.6732 11.4152 12.6265 11.5418 12.5347C11.7655 12.3726 11.8776 12.0979 11.8307 11.826L11.205 8.18674L13.8558 5.60952C14.0537 5.41692 14.1249 5.12895 14.0394 4.86666ZM9.91718 7.41495C9.74588 7.58142 9.66784 7.82135 9.70835 8.05647L10.1499 10.6239L7.83822 9.41174C7.62649 9.30085 7.37371 9.30085 7.16207 9.41174L4.85037 10.6239L5.29185 8.05638C5.33237 7.82127 5.25414 7.58151 5.08302 7.41503L3.21279 5.59681L5.7974 5.22222C6.03408 5.18795 6.23869 5.03971 6.34443 4.82581L7.50036 2.48985L8.6563 4.82581C8.76221 5.03962 8.96665 5.18795 9.20333 5.22222L11.7878 5.59681L9.91718 7.41495Z" fill="white"/>
</svg>
