<svg width="34" height="40" viewBox="0 0 34 40" fill="none" xmlns="http://www.w3.org/2000/svg">
<path d="M33.3203 3.85735C32.7724 3.20829 31.9734 2.83618 31.1282 2.83618H28.354V1.96196C28.354 0.880158 27.4803 0 26.4065 0H7.59364C6.51973 0 5.64622 0.880158 5.64622 1.96188V2.8361H2.87173C2.02652 2.8361 1.22745 3.20829 0.679636 3.85727C0.13741 4.49954 -0.0969446 5.34314 0.0368283 6.17165C0.765793 10.6873 3.58666 14.6766 7.59015 16.8648C7.95595 17.7508 8.37022 18.59 8.83156 19.3719C10.3052 21.87 12.1371 23.5964 14.1535 24.4313C14.3579 26.5129 12.983 28.4848 10.9124 28.9547C10.908 28.9558 10.9049 28.9573 10.9006 28.9583C10.4965 29.0556 10.1957 29.4209 10.1957 29.8578V34.1049H8.49065C6.97053 34.1049 5.73385 35.3508 5.73385 36.8822V39.0742C5.73385 39.5855 6.14525 40 6.65281 40H27.4351C27.9426 40 28.354 39.5855 28.354 39.0742V36.8822C28.354 35.3508 27.1173 34.1049 25.5972 34.1049H23.8921V29.8579C23.8921 29.4201 23.5902 29.0543 23.185 28.9579C23.1812 28.9569 23.1775 28.9557 23.1737 28.9547C21.0875 28.4817 19.71 26.4899 19.9359 24.3927C21.9171 23.5443 23.717 21.8332 25.1688 19.3721C25.6302 18.5901 26.0444 17.7508 26.4102 16.8646C30.4135 14.6764 33.2342 10.6871 33.9632 6.17165C34.0969 5.34314 33.8626 4.49962 33.3203 3.85735ZM1.85087 5.87439C1.8031 5.57853 1.88429 5.28814 2.07956 5.05673C2.2777 4.82204 2.56634 4.68751 2.87165 4.68751H5.64614V6.39079C5.64614 9.06158 5.98449 11.6486 6.62574 14.0145C4.10569 12.0083 2.3706 9.094 1.85087 5.87439ZM25.5972 35.9566C26.1039 35.9566 26.5162 36.3719 26.5162 36.8823V38.1486H7.57169V36.8823C7.57169 36.3719 7.98394 35.9566 8.49065 35.9566H25.5972ZM22.0541 30.7837V34.105H12.0337V30.7837H22.0541ZM14.4437 28.9322C14.6709 28.6803 14.8786 28.4072 15.0643 28.115C15.6767 27.151 15.9981 26.0558 16.0126 24.9373C16.339 24.9821 16.6684 25.0061 17.0006 25.0061C17.3621 25.0061 17.7202 24.9781 18.0748 24.9251C18.0958 26.4282 18.6765 27.8509 19.6529 28.9321H14.4437V28.9322ZM26.516 6.39087C26.516 10.9517 25.4764 15.226 23.5888 18.426C21.7902 21.4752 19.4504 23.1545 17.0005 23.1545C14.5501 23.1545 12.2102 21.4753 10.4114 18.4261C8.52369 15.226 7.48406 10.9518 7.48406 6.39103V1.96188C7.48406 1.90094 7.53323 1.85149 7.59356 1.85149H26.4064C26.4669 1.85149 26.516 1.90102 26.516 1.96188V6.39087ZM32.1491 5.87439C31.6294 9.09377 29.8945 12.008 27.3745 14.0143C28.0157 11.6485 28.354 9.06158 28.354 6.39087V4.68759H31.1282C31.4336 4.68759 31.7222 4.8222 31.9203 5.05681C32.1156 5.28814 32.1968 5.57853 32.1491 5.87439Z" fill="white"/>
</svg>
